<svg xmlns="http://www.w3.org/2000/svg" width="24" height="24"><rect id="backgroundrect" width="100%" height="100%" x="0" y="0" fill="none" stroke="none"/><g class="currentLayer" style=""><title>Layer 1</title><path d="M0 0h24v24H0z" fill="none" id="svg_1"/><path d="M16.642856121167085,10.272727519969067 c-3.142792002525387,0 -5.688311316788031,2.37116889439209 -5.688311316788031,5.298701439982324 s2.545519314262644,5.298701439982324 5.688311316788031,5.298701439982324 s5.688311316788031,-2.37116889439209 5.688311316788031,-5.298701439982324 s-2.545519314262644,-5.298701439982324 -5.688311316788031,-5.298701439982324 zm12.71337579302125,3.974026079986743 c-0.6541558014306237,-5.523896251181572 -5.361233416072719,-9.908571692766946 -11.291297963824242,-10.517922358364913 V1 h-2.8441556583940155 v2.728831241590897 C9.290713744218555,4.338181907188864 4.583636129576459,8.722857348774237 3.929480328145836,14.24675359995581 H1 v2.649350719991162 h2.929480328145836 c0.6541558014306237,5.523896251181572 5.361233416072719,9.908571692766946 11.291297963824242,10.517922358364913 V30.14285791990278 h2.8441556583940155 v-2.728831241590897 c5.930064547751522,-0.6093506655979672 10.63714216239362,-4.99402610718334 11.291297963824242,-10.517922358364913 H32.28571224233417 v-2.649350719991162 h-2.929480328145836 zM16.642856121167085,24.84415647992046 c-5.50344119899242,0 -9.954544804379054,-4.146233876786168 -9.954544804379054,-9.272727519969067 s4.451103605386634,-9.272727519969067 9.954544804379054,-9.272727519969067 s9.954544804379054,4.146233876786168 9.954544804379054,9.272727519969067 s-4.451103605386634,9.272727519969067 -9.954544804379054,9.272727519969067 z" id="svg_2" class="selected" fill="#4141e8" fill-opacity="1"/></g></svg>